<?xml version="1.0" encoding="utf-8"?>
<!-- Generator: Adobe Illustrator 18.1.1, SVG Export Plug-In . SVG Version: 6.00 Build 0)  -->
<!DOCTYPE svg PUBLIC "-//W3C//DTD SVG 1.1//EN" "http://www.w3.org/Graphics/SVG/1.1/DTD/svg11.dtd">
<svg version="1.1" id="Layer_1" xmlns="http://www.w3.org/2000/svg" xmlns:xlink="http://www.w3.org/1999/xlink" x="0px" y="0px"
	 width="151px" height="120.7px" viewBox="0 0 151 120.7" enable-background="new 0 0 151 120.7" xml:space="preserve">
<path d="M108.3,86c1.4,0.1,3.2-0.1,3.2-1.1c0-0.9-2-1.1-3.3-1.1c-1.5-12-0.8-32.4-5.7-35.2c-6-3.5-11.3,0.1-14,2.4
	c-1,0.9-2,2.3-2.9,3.9c0.1-9.2-1.5-18.9-11-21.2C88.1,27.4,89.5,8.6,89.5,8.6s-2.1,0.1-3.2,1.1C81.1,29.1,76.9,31.6,64,37.6
	C63.8,28,64.1,8,64,6.1c-0.1-1.8-2.3-0.9-2.3-0.9C36.8,13.9,34.8,28.5,36.2,35c4.1,1.4,6.8,0,6.8,0C38.7,23.9,45.7,16,58.2,8.1
	c0.4,16.9,0.2,28.5,0.2,32.1c-4.6,2.1-13.1,5.5-19.7,10.7c-11.5,9-3.5,33.4,14.2,23.6c12-5.5,11.4-19,11.2-35c0,0,2.3-1.2,5.2-3
	c16,1.1,9.4,31.9,10.6,37.3c-0.8,4.2-1.4,8-1.8,10.6c-7.5,0.6-26.4,2.4-29,14.9c-2.6,12.5,11.9,15.2,17.2,13.1
	c5.2-2.1,10.3-2,16.6-25.2c9.2-0.7,14.6-0.8,19.3-0.9c0.5,15.8,2.7,29.8,4.9,30.3c2.5,0.8,5.6-0.7,5.6-0.7
	C108.8,106.3,108.3,87.6,108.3,86z M50.3,74.1c-4.2-0.8-10.2-3.2-11.7-10c-3.2-15.6,19.8-21.9,19.8-21.9s-0.1,1.1,0,10.9
	S57.7,67.7,50.3,74.1z M63.6,110.2c-19.4-3-6.7-25.9,14.2-23.5C77.8,86.8,74,111.8,63.6,110.2z M83.9,85c0,0,0.9-5.5,2.4-12.2
	c0,0,0.1-0.1,0.1-0.1c0,0,0,0-0.1,0c2.1-9.7,5.4-21.6,8.7-22.2c5.6-1,5.1,9.7,7,33.6L83.9,85z"/>
</svg>
